<svg width="1280" height="440" viewBox="0 0 1280 440" fill="none" xmlns="http://www.w3.org/2000/svg">
  <defs>
    <linearGradient id="panel" x1="60" y1="42" x2="1220" y2="390" gradientUnits="userSpaceOnUse">
      <stop offset="0" stop-color="#303033"/>
      <stop offset="0.58" stop-color="#25262a"/>
      <stop offset="1" stop-color="#15171a"/>
    </linearGradient>
    <linearGradient id="mac" x1="190" y1="224" x2="640" y2="224" gradientUnits="userSpaceOnUse">
      <stop offset="0" stop-color="#f5f5f7"/>
      <stop offset="1" stop-color="#ffffff"/>
    </linearGradient>
    <linearGradient id="goblin" x1="640" y1="224" x2="1090" y2="224" gradientUnits="userSpaceOnUse">
      <stop offset="0" stop-color="#dfffe8"/>
      <stop offset="0.55" stop-color="#75ff93"/>
      <stop offset="1" stop-color="#fff38a"/>
    </linearGradient>
    <filter id="shadow" x="16" y="0" width="1248" height="440" filterUnits="userSpaceOnUse" color-interpolation-filters="sRGB">
      <feDropShadow dx="0" dy="18" stdDeviation="26" flood-color="#000" flood-opacity="0.38"/>
    </filter>
    <filter id="greenGlow" x="580" y="160" width="565" height="130" filterUnits="userSpaceOnUse" color-interpolation-filters="sRGB">
      <feGaussianBlur stdDeviation="18" result="blur"/>
      <feColorMatrix in="blur" type="matrix" values="0 0 0 0 0.36 0 0 0 0 1 0 0 0 0 0.42 0 0 0 0.75 0"/>
      <feBlend in="SourceGraphic"/>
    </filter>
  </defs>

  <rect width="1280" height="440" fill="#0d1117"/>
  <g filter="url(#shadow)">
    <rect x="54" y="42" width="1172" height="350" rx="62" fill="url(#panel)" stroke="#989aa1" stroke-width="2"/>
  </g>

  <text x="104" y="104" fill="#f5f5f7" font-family="-apple-system, BlinkMacSystemFont, 'SF Pro Display', Arial, sans-serif" font-size="34" font-weight="750">Display</text>
  <text x="104" y="142" fill="#bec3ca" font-family="-apple-system, BlinkMacSystemFont, 'SF Pro Text', Arial, sans-serif" font-size="20" font-weight="550">same brightness keys, two clean zones</text>

  <text x="415" y="184" text-anchor="middle" fill="#f5f5f7" font-family="-apple-system, BlinkMacSystemFont, 'SF Pro Text', Arial, sans-serif" font-size="22" font-weight="800">Mac range</text>
  <text x="865" y="184" text-anchor="middle" fill="#baffc8" font-family="-apple-system, BlinkMacSystemFont, 'SF Pro Text', Arial, sans-serif" font-size="22" font-weight="850">Goblin range</text>

  <text x="640" y="142" text-anchor="middle" fill="#ffffff" font-family="-apple-system, BlinkMacSystemFont, 'SF Pro Text', Arial, sans-serif" font-size="23" font-weight="850">50% = old 100%</text>
  <text x="1090" y="142" text-anchor="end" fill="#fff38a" font-family="-apple-system, BlinkMacSystemFont, 'SF Pro Text', Arial, sans-serif" font-size="23" font-weight="850">100% = Goblin max</text>

  <g transform="translate(106 202)" stroke="#f5f5f7" stroke-width="5" stroke-linecap="round">
    <circle cx="22" cy="22" r="10" fill="#f5f5f7" stroke="none"/>
    <path d="M22 1V8M22 36V43M1 22H8M36 22H43M7 7L12 12M32 32L37 37M37 7L32 12M12 32L7 37"/>
  </g>
  <g transform="translate(1132 194)" stroke="#f5f5f7" stroke-width="5" stroke-linecap="round">
    <circle cx="30" cy="30" r="14" fill="#f5f5f7" stroke="none"/>
    <path d="M30 1V10M30 50V59M1 30H10M50 30H59M9 9L16 16M44 44L51 51M51 9L44 16M16 44L9 51"/>
  </g>

  <rect x="190" y="212" width="900" height="24" rx="12" fill="#55575b" opacity="0.6"/>
  <rect x="190" y="212" width="450" height="24" rx="12" fill="url(#mac)"/>
  <g filter="url(#greenGlow)">
    <path d="M640 224H1090" stroke="url(#goblin)" stroke-width="24" stroke-linecap="round"/>
  </g>
  <rect x="190" y="212" width="900" height="24" rx="12" stroke="#ffffff" stroke-opacity="0.16"/>

  <line x1="640" y1="190" x2="640" y2="282" stroke="#f5f5f7" stroke-opacity="0.72" stroke-width="2" stroke-dasharray="8 8"/>
  <circle cx="640" cy="224" r="17" fill="#0d1117" stroke="#ffffff" stroke-width="4"/>
  <circle cx="640" cy="224" r="7" fill="#ffffff"/>

  <g fill="#828992">
    <circle cx="210" cy="272" r="4"/>
    <circle cx="272" cy="272" r="4"/>
    <circle cx="334" cy="272" r="4"/>
    <circle cx="396" cy="272" r="4"/>
    <circle cx="458" cy="272" r="4"/>
    <circle cx="520" cy="272" r="4"/>
    <circle cx="582" cy="272" r="4"/>
    <circle cx="698" cy="272" r="4"/>
    <circle cx="760" cy="272" r="4"/>
    <circle cx="822" cy="272" r="4"/>
    <circle cx="884" cy="272" r="4"/>
    <circle cx="946" cy="272" r="4"/>
    <circle cx="1008" cy="272" r="4"/>
    <circle cx="1070" cy="272" r="4"/>
  </g>

  <text x="415" y="322" text-anchor="middle" fill="#f5f5f7" font-family="-apple-system, BlinkMacSystemFont, 'SF Pro Text', Arial, sans-serif" font-size="21" font-weight="750">Native Apple brightness</text>
  <text x="415" y="352" text-anchor="middle" fill="#aeb4bc" font-family="-apple-system, BlinkMacSystemFont, 'SF Pro Text', Arial, sans-serif" font-size="18" font-weight="500">stock max stays stock</text>

  <text x="865" y="322" text-anchor="middle" fill="#baffc8" font-family="-apple-system, BlinkMacSystemFont, 'SF Pro Text', Arial, sans-serif" font-size="21" font-weight="800">XDR headroom opens</text>
  <text x="865" y="352" text-anchor="middle" fill="#aeb4bc" font-family="-apple-system, BlinkMacSystemFont, 'SF Pro Text', Arial, sans-serif" font-size="18" font-weight="500">same keys, brighter screen</text>
</svg>
